<?xml version="1.0" encoding="UTF-8" standalone="no"?>
<!-- Created with Inkscape (http://www.inkscape.org/) -->

<svg
   width="500mm"
   height="500mm"
   viewBox="0 0 500 500"
   version="1.1"
   id="svg1"
   inkscape:version="1.3.2 (091e20ef0f, 2023-11-25)"
   sodipodi:docname="flureboard-icon.svg"
   xmlns:inkscape="http://www.inkscape.org/namespaces/inkscape"
   xmlns:sodipodi="http://sodipodi.sourceforge.net/DTD/sodipodi-0.dtd"
   xmlns="http://www.w3.org/2000/svg"
   xmlns:svg="http://www.w3.org/2000/svg"
   xmlns:rdf="http://www.w3.org/1999/02/22-rdf-syntax-ns#"
   xmlns:cc="http://creativecommons.org/ns#">
  <sodipodi:namedview
     id="namedview1"
     pagecolor="#ffffff"
     bordercolor="#666666"
     borderopacity="1.0"
     inkscape:showpageshadow="2"
     inkscape:pageopacity="0.0"
     inkscape:pagecheckerboard="0"
     inkscape:deskcolor="#d1d1d1"
     inkscape:document-units="mm"
     inkscape:zoom="0.13354477"
     inkscape:cx="509.19252"
     inkscape:cy="1025.8732"
     inkscape:window-width="1920"
     inkscape:window-height="1052"
     inkscape:window-x="0"
     inkscape:window-y="0"
     inkscape:window-maximized="1"
     inkscape:current-layer="layer1" />
  <defs
     id="defs1">
    <rect
       x="389.17545"
       y="540.0802"
       width="1154.2891"
       height="844.53723"
       id="rect1" />
    <rect
       x="389.17545"
       y="540.0802"
       width="1154.2891"
       height="844.53723"
       id="rect2" />
    <rect
       x="389.17545"
       y="540.0802"
       width="1154.2891"
       height="844.53723"
       id="rect4" />
  </defs>
  <g
     inkscape:label="Layer 1"
     inkscape:groupmode="layer"
     id="layer1">
    <rect
       style="fill:#000000;fill-opacity:1;stroke:none;stroke-width:10;stroke-dasharray:none;stroke-opacity:1"
       id="rect3"
       width="500"
       height="500"
       x="0"
       y="0"
       ry="201.06601" />
    <path
       d="m 392.90625,576.77968 v -28.90625 h 19.62891 v 3.06641 h -15.52735 v 9.6875 h 13.57422 v 3.02734 h -13.57422 v 13.125 z m 24.33594,0 v -3.84765 h 3.84765 v 3.84765 z m 0,-17.34375 v -3.86718 h 3.84765 v 3.86718 z m 22.85156,9.88282 V 558.4789 q -2.71484,-0.48828 -4.00391,-0.48828 -5.52734,0 -5.52734,8.39844 0,3.47656 1.09375,5.48828 1.07422,2.01172 2.91016,2.01172 2.46093,0 5.52734,-4.57031 z m 0,3.49609 q -1.09375,1.99219 -2.30469,3.00781 -1.71875,1.44531 -4.04297,1.44531 -3.30078,0 -5.3125,-2.89062 -2.03125,-2.87109 -2.03125,-7.63672 0,-5.54687 2.61719,-8.59375 2.61719,-3.04687 7.36328,-3.04687 1.83594,0 3.71094,0.46875 v -9.62891 h 3.84766 v 30.83984 h -3.84766 z"
       id="text1"
       style="font-size:40px;line-height:1.25;font-family:'Luxi Sans';-inkscape-font-specification:'Luxi Sans, Normal';white-space:pre;display:inline;fill:#7986cb;stroke-width:1.37876"
       inkscape:label="text1"
       aria-label="F:d&#10;"
       transform="matrix(8.1586222,0,0,9.2847447,-3163.7619,-4964.3488)" />
    <text
       xml:space="preserve"
       transform="matrix(8.1586222,0,0,9.2847447,-3163.7619,-4964.3488)"
       id="text2"
       style="font-style:normal;font-variant:normal;font-weight:normal;font-stretch:normal;font-size:40px;line-height:1.25;font-family:'Luxi Sans';-inkscape-font-specification:'Luxi Sans, Normal';font-variant-ligatures:normal;font-variant-caps:normal;font-variant-numeric:normal;font-variant-east-asian:normal;white-space:pre;shape-inside:url(#rect4);display:none;fill:#7986cb;fill-opacity:1;stroke:none;stroke-width:1.37876;stroke-dasharray:none;stroke-opacity:1"
       inkscape:label="text1"><tspan
         x="389.17578"
         y="576.77968"
         id="tspan2">F:d
</tspan></text>
  </g>
  <metadata
     id="metadata1">
    <rdf:RDF>
      <cc:Work
         rdf:about="">
        <cc:license
           rdf:resource="http://creativecommons.org/publicdomain/zero/1.0/" />
      </cc:Work>
      <cc:License
         rdf:about="http://creativecommons.org/publicdomain/zero/1.0/">
        <cc:permits
           rdf:resource="http://creativecommons.org/ns#Reproduction" />
        <cc:permits
           rdf:resource="http://creativecommons.org/ns#Distribution" />
        <cc:permits
           rdf:resource="http://creativecommons.org/ns#DerivativeWorks" />
      </cc:License>
    </rdf:RDF>
  </metadata>
</svg>
